<?xml version="1.0" standalone="no"?>
<!DOCTYPE svg PUBLIC "-//W3C//DTD SVG 20010904//EN"
 "http://www.w3.org/TR/2001/REC-SVG-20010904/DTD/svg10.dtd">
<svg version="1.0" xmlns="http://www.w3.org/2000/svg"
 width="1420.000000pt" height="1684.000000pt" viewBox="0 0 1420.000000 1684.000000"
 preserveAspectRatio="xMidYMid meet">

<g transform="translate(0.000000,1684.000000) scale(0.100000,-0.100000)"
fill="#000000" stroke="none">
<path d="M5348 16746 c-64 -36 -151 -88 -193 -116 -42 -29 -78 -50 -79 -48 -2
1 -11 20 -21 40 -34 74 -109 91 -191 43 -39 -23 -50 -25 -71 -16 -40 19 -79
13 -147 -23 -82 -43 -184 -114 -355 -250 l-135 -106 -22 21 c-32 30 -92 35
-130 10 -17 -10 -71 -75 -120 -143 -48 -67 -114 -158 -146 -200 -58 -77 -58
-77 -85 -62 -36 18 -67 18 -104 -2 -44 -22 -59 -68 -59 -176 0 -51 -3 -109 -6
-128 -6 -34 -7 -35 -54 -35 -37 0 -54 -6 -73 -24 -29 -27 -25 -28 -99 23 -38
25 -72 40 -102 43 -42 5 -48 3 -81 -30 -43 -43 -45 -74 -9 -187 l25 -81 -23
-29 c-13 -16 -26 -29 -30 -29 -4 -1 -60 31 -124 70 -217 131 -261 146 -324
114 -36 -18 -52 -47 -52 -90 0 -41 4 -47 105 -192 46 -65 92 -131 102 -147
l20 -30 -23 6 c-23 6 -23 5 -16 -49 l7 -56 -190 7 c-186 6 -190 6 -223 -16
-42 -28 -59 -77 -42 -120 17 -45 6 -58 -45 -58 -48 0 -112 -25 -120 -47 -3 -8
-21 -13 -44 -13 -48 0 -103 -45 -120 -98 -12 -38 -66 -101 -132 -154 l-38 -30
-435 -33 c-240 -18 -437 -35 -440 -37 -2 -2 49 -42 113 -89 64 -46 121 -91
126 -100 8 -13 2 -27 -25 -60 -49 -60 -125 -189 -331 -559 -96 -173 -183 -330
-193 -347 -13 -22 -27 -33 -41 -33 -19 0 -23 -6 -23 -30 0 -23 -4 -30 -20 -30
-16 0 -20 -7 -20 -37 0 -35 -9 -47 -139 -173 -77 -74 -144 -145 -150 -157 -6
-12 -11 -40 -11 -63 0 -33 6 -48 29 -71 25 -24 38 -29 78 -29 53 0 300 73 769
226 246 81 264 85 303 74 28 -7 45 -19 55 -38 31 -60 61 -282 39 -282 -5 0
-37 9 -73 20 -122 37 -190 22 -220 -49 -19 -47 -5 -92 59 -181 56 -78 58 -84
45 -109 -18 -34 -18 -76 1 -105 15 -23 14 -24 -32 -41 -104 -38 -147 -101
-119 -170 15 -36 60 -75 86 -75 32 0 30 -13 -10 -56 -32 -35 -40 -51 -40 -81
0 -53 31 -98 85 -126 l46 -23 -135 -112 c-185 -154 -221 -206 -192 -277 25
-59 57 -75 157 -75 l87 0 12 -35 c6 -20 27 -48 46 -63 28 -22 34 -34 34 -65 0
-51 38 -89 111 -110 45 -14 63 -26 99 -68 48 -57 51 -51 -42 -99 -67 -35 -93
-68 -93 -122 0 -29 8 -45 32 -69 32 -32 40 -34 205 -48 4 -1 5 -20 2 -43 -7
-55 20 -105 69 -131 21 -10 37 -22 37 -26 0 -4 -23 -24 -50 -45 -28 -21 -64
-55 -80 -74 l-30 -36 -72 33 c-40 18 -116 51 -168 74 -156 67 -243 57 -281
-35 -31 -75 58 -189 248 -315 74 -49 113 -80 113 -92 0 -10 -4 -74 -10 -142
-5 -68 -14 -245 -20 -394 -18 -474 -15 -454 -66 -522 -60 -80 -86 -136 -86
-186 1 -35 7 -47 36 -75 20 -18 36 -36 36 -41 0 -21 -282 -432 -483 -702 l-56
-77 67 -12 c119 -23 111 -10 106 -152 -14 -399 -39 -708 -65 -823 -16 -67 -49
-141 -93 -206 -42 -63 -48 -121 -17 -160 15 -20 21 -55 30 -194 31 -435 79
-734 167 -1037 85 -292 227 -588 382 -792 86 -114 118 -144 164 -156 88 -24
136 -72 107 -107 -12 -13 -9 -20 21 -45 95 -80 242 -168 325 -194 l85 -26
-123 -70 c-188 -107 -294 -176 -322 -209 -38 -45 -35 -110 6 -151 l30 -31 107
7 c59 4 132 9 163 12 l56 6 26 -45 c38 -65 79 -82 197 -82 93 0 98 1 190 46
52 25 194 112 315 192 120 80 220 145 222 143 1 -1 -18 -42 -43 -92 -24 -49
-48 -109 -52 -134 l-7 -45 -111 -5 c-125 -6 -156 -19 -180 -77 -28 -65 8 -123
99 -162 l48 -21 -35 -31 c-20 -17 -36 -35 -36 -39 0 -4 14 -13 31 -20 19 -8
28 -18 25 -27 -4 -8 -6 -16 -6 -19 0 -2 -16 4 -36 13 -41 20 -45 17 -69 -62
-28 -91 -46 -228 -51 -390 -4 -108 -10 -172 -21 -200 -20 -53 -27 -118 -15
-141 5 -11 6 -28 2 -39 -5 -15 1 -29 26 -57 33 -37 33 -38 20 -76 -8 -21 -19
-65 -25 -98 -19 -99 -21 -104 -31 -104 -5 0 -20 16 -32 35 -13 19 -26 35 -30
35 -5 0 -8 -27 -8 -59 0 -49 4 -65 26 -90 23 -28 25 -36 19 -86 l-7 -55 44 6
44 6 18 -138 c32 -254 122 -637 161 -689 13 -16 28 -49 34 -72 6 -23 32 -81
56 -129 43 -84 45 -90 45 -176 0 -145 28 -178 153 -178 43 0 86 4 95 9 9 5 60
14 112 21 132 16 250 39 355 70 17 4 56 15 89 24 83 23 177 73 317 168 67 46
138 94 158 107 20 13 59 46 88 72 28 27 55 49 60 49 4 0 40 31 78 68 61 59 72
74 82 121 9 39 22 62 45 82 29 27 30 30 15 47 -16 17 -14 21 24 58 22 21 48
53 56 69 9 17 43 57 76 90 60 60 192 221 303 370 32 44 69 94 81 110 37 49
168 247 196 295 118 205 208 519 232 810 l6 76 97 11 c53 7 201 35 327 62 297
64 369 74 512 70 113 -4 121 -6 197 -43 74 -36 82 -37 118 -27 54 17 100 60
138 133 23 45 65 95 146 175 63 62 114 119 114 128 0 19 36 91 49 100 5 3 28
-2 50 -11 l40 -16 63 38 c256 154 436 303 485 403 25 50 28 67 28 161 1 124
-10 99 168 380 162 255 225 374 276 522 68 197 183 446 270 585 14 24 29 43
32 43 8 0 11 -8 69 -239 56 -221 102 -326 217 -501 116 -175 209 -288 367
-446 170 -170 303 -279 486 -400 109 -71 364 -214 384 -214 3 0 4 11 0 25 -5
19 0 30 22 48 l27 24 -56 26 c-84 38 -260 141 -367 215 -364 249 -694 610
-870 952 -42 83 -61 138 -104 308 -76 293 -99 342 -163 342 -29 0 -44 -8 -74
-40 -87 -92 -260 -441 -350 -709 -46 -136 -82 -203 -252 -470 -193 -306 -192
-303 -192 -430 0 -97 -2 -110 -27 -152 -47 -80 -154 -165 -408 -324 -273 -172
-427 -307 -513 -453 -27 -45 -55 -86 -64 -91 -11 -6 -31 -1 -62 15 -74 38
-156 54 -271 54 -131 0 -231 -15 -535 -80 -132 -28 -271 -54 -309 -57 l-69 -6
7 27 c12 48 30 180 30 226 1 29 -6 57 -17 74 -19 28 -19 28 -110 23 -51 -3
-112 -10 -137 -16 -25 -7 -66 -14 -92 -18 l-48 -6 0 54 c0 30 -3 91 -7 137
l-6 82 -42 0 -42 0 -6 50 c-11 90 -52 124 -127 101 -80 -24 -93 -11 -110 107
-37 255 36 626 193 979 107 241 294 521 487 726 l60 64 -11 61 c-9 48 -14 59
-26 55 -20 -8 -218 -235 -303 -347 -323 -431 -513 -944 -514 -1391 0 -205 24
-302 87 -349 22 -16 43 -21 93 -21 42 0 65 -4 68 -12 3 -8 16 -11 33 -8 53 10
56 0 64 -177 4 -90 10 -170 14 -179 16 -41 94 -48 215 -19 78 18 181 33 187
26 4 -3 -3 -50 -15 -104 -12 -56 -25 -168 -31 -267 -29 -489 -175 -843 -555
-1345 -97 -128 -217 -275 -298 -365 -66 -73 -78 -91 -78 -114 0 -14 7 -33 16
-43 16 -17 13 -22 -57 -90 -41 -40 -89 -84 -108 -98 -18 -14 -38 -29 -44 -35
-7 -5 -39 -30 -72 -55 -33 -25 -62 -48 -65 -51 -3 -3 -27 -20 -55 -39 -27 -19
-52 -37 -55 -40 -13 -16 -182 -120 -275 -169 -73 -39 -210 -82 -305 -95 -25
-4 -65 -11 -90 -16 -25 -5 -79 -13 -120 -19 -41 -6 -110 -15 -154 -22 -64 -9
-80 -8 -87 3 -5 7 -9 52 -9 99 0 93 -14 141 -50 174 -44 40 -86 152 -144 382
-74 293 -111 518 -104 636 3 59 10 85 41 146 21 40 36 79 33 87 -7 19 -57 0
-97 -38 l-32 -31 7 51 c7 57 58 229 99 334 l26 67 -31 -6 c-28 -6 -30 -4 -23
13 29 70 36 109 41 247 9 256 42 423 92 476 15 16 63 43 109 61 78 30 113 54
113 77 0 10 -38 28 -207 93 -46 18 -83 36 -83 41 0 5 49 9 108 9 117 0 222 16
222 34 0 6 -7 20 -15 30 -20 27 -19 66 5 126 11 28 20 53 20 55 0 10 -57 4
-68 -7 -34 -34 -14 11 54 122 66 108 75 128 72 164 -3 38 -5 41 -36 44 -51 5
-162 -53 -372 -193 -146 -98 -188 -131 -197 -155 -10 -26 -16 -31 -34 -25 -15
5 -48 -6 -114 -40 -102 -52 -168 -65 -230 -45 -45 15 -58 43 -39 89 l14 34
-182 -6 c-101 -4 -196 -10 -213 -13 -80 -19 44 63 410 269 127 71 236 135 244
142 11 11 -1 14 -65 20 -204 16 -319 44 -408 98 -206 125 -381 297 -527 520
-55 83 -58 90 -56 146 2 49 11 76 48 150 26 50 43 91 38 91 -5 0 -14 -11 -21
-25 -20 -45 -28 -15 -28 110 0 169 -4 176 -73 129 -46 -31 -54 -27 -33 15 23
43 20 51 -19 51 -41 0 -41 2 -15 80 11 32 27 102 37 154 21 120 14 132 -51 87
-25 -18 -46 -30 -46 -28 0 3 24 43 53 89 58 93 93 165 84 174 -3 3 -34 -1 -69
-10 -79 -20 -98 -20 -98 -2 0 8 34 64 75 126 41 62 75 116 75 121 0 5 -14 6
-32 2 -37 -7 -38 -11 44 100 63 85 75 127 36 127 -13 -1 -57 -5 -98 -10 -41
-4 -76 -7 -78 -5 -2 1 32 47 74 101 122 156 203 290 204 335 0 25 -20 28 -96
14 -38 -7 -70 -12 -71 -11 -2 1 25 23 60 48 93 70 239 210 265 256 21 37 21
41 6 57 -9 9 -29 19 -45 22 -16 3 -27 9 -24 13 2 4 42 21 87 38 174 66 197
105 60 103 l-66 -1 31 33 c109 115 273 411 244 440 -10 10 -31 3 -245 -78 -87
-33 -79 -21 62 88 147 113 150 131 18 98 -100 -25 -106 -25 -106 -8 0 14 79
94 119 120 l24 16 -29 6 c-65 14 -71 21 -24 29 141 22 145 56 13 107 -35 13
-63 26 -63 29 0 3 40 15 90 25 49 10 90 22 90 25 0 3 -36 25 -79 48 -98 54
-150 96 -136 111 6 5 56 14 113 19 56 5 105 12 109 15 12 12 -7 37 -49 64
l-43 28 63 3 c52 2 62 6 62 21 0 21 -40 54 -122 101 -32 17 -58 34 -58 36 0 9
79 42 118 49 54 9 54 18 -3 141 -25 53 -45 100 -45 104 0 4 13 10 29 13 44 9
54 36 31 80 -18 33 -18 37 -4 37 9 0 47 -17 85 -37 63 -34 70 -36 86 -21 13
12 46 17 123 20 79 3 117 9 152 25 l48 22 44 -82 c96 -175 242 -499 261 -580
6 -24 4 -29 -24 -38 -39 -14 -39 -23 0 -39 55 -23 149 -89 149 -105 0 -12 -16
-15 -93 -15 -52 0 -96 -3 -100 -6 -3 -4 9 -20 27 -38 25 -24 49 -73 105 -216
115 -293 150 -344 293 -416 333 -168 1140 -437 1493 -499 50 -8 114 -27 143
-41 95 -47 248 -183 386 -344 l39 -45 -7 35 c-4 19 -9 53 -12 75 -6 44 -11 48
60 -38 40 -49 56 -58 56 -31 0 9 -31 91 -68 183 -66 159 -69 171 -81 291 -11
118 -10 129 9 187 12 34 51 119 87 190 63 124 66 133 89 275 61 383 166 720
309 993 157 302 384 698 421 739 l24 25 55 -21 c31 -11 58 -18 61 -15 4 3 -8
24 -25 45 -35 45 -37 52 -15 52 61 0 150 523 161 945 8 322 -12 468 -138 1045
-33 151 -65 316 -70 365 -5 50 -13 239 -18 420 -8 303 -11 334 -30 378 -26 61
-26 65 3 60 30 -6 39 8 27 40 -17 44 -101 602 -101 668 0 5 229 9 590 9 325 0
590 -2 590 -5 0 -64 -84 -618 -100 -661 -18 -45 -13 -57 20 -52 36 5 36 4 8
-58 -20 -45 -22 -72 -30 -359 -11 -427 -17 -488 -87 -801 -114 -512 -143 -710
-142 -969 1 -398 90 -978 157 -1022 l23 -15 -31 -39 c-17 -21 -29 -41 -26 -44
2 -3 30 4 61 14 l57 20 31 -37 c61 -73 422 -728 492 -891 110 -260 196 -577
238 -881 10 -73 22 -106 86 -234 96 -195 108 -235 94 -326 -6 -38 -11 -90 -11
-117 0 -27 -10 -68 -21 -93 -23 -51 -94 -226 -115 -282 -23 -65 -2 -51 96 62
l21 25 -5 -40 c-3 -22 -9 -55 -12 -74 -7 -33 -4 -31 63 45 139 157 276 274
365 314 25 11 86 27 135 35 182 32 554 140 903 262 350 123 620 242 697 307
49 43 111 159 178 335 64 171 83 209 116 234 40 29 23 37 -88 37 -51 0 -93 4
-93 9 0 16 62 62 127 94 35 17 63 34 63 38 0 4 -13 12 -30 18 -17 5 -30 17
-30 26 0 55 206 495 365 780 94 169 233 395 243 395 4 0 20 -18 35 -41 61 -85
230 -188 410 -247 l88 -30 -64 -12 c-89 -16 -98 -24 -53 -45 49 -24 81 -64 64
-81 -7 -7 -67 -27 -133 -44 -123 -32 -206 -66 -212 -86 -2 -7 13 -15 33 -19
81 -15 237 -118 333 -219 l35 -36 -122 0 c-67 0 -122 -3 -122 -7 1 -5 20 -22
44 -40 49 -36 133 -142 142 -180 8 -31 -10 -44 -51 -38 -16 2 -109 7 -205 10
-186 7 -206 0 -85 -29 89 -22 135 -50 135 -82 0 -28 -32 -47 -110 -63 -85 -18
-207 -61 -232 -81 l-23 -19 22 -1 c36 0 39 -21 7 -47 -163 -134 -173 -162 -62
-178 26 -4 53 -14 60 -22 14 -17 -8 -40 -117 -122 -55 -41 -57 -45 -40 -57 10
-8 27 -14 37 -14 33 0 31 -28 -6 -71 -39 -46 -36 -69 10 -69 31 0 74 -17 74
-30 0 -5 -16 -28 -36 -50 -52 -57 -45 -70 52 -91 99 -21 164 -52 164 -78 0
-12 -22 -32 -62 -56 -74 -46 -138 -102 -138 -121 0 -21 78 -18 199 7 57 11
105 19 107 16 2 -2 -86 -44 -197 -92 -211 -93 -221 -102 -114 -105 28 -1 61
-5 74 -9 22 -6 19 -9 -31 -43 -66 -46 -122 -103 -114 -116 3 -5 43 -13 88 -17
126 -11 131 -16 65 -53 -71 -40 -157 -126 -185 -184 -51 -103 -11 -213 113
-311 38 -31 44 -39 25 -34 -146 35 -232 26 -238 -26 -5 -38 -34 -54 -136 -76
-56 -12 -95 -26 -108 -39 -20 -20 -20 -22 -4 -61 19 -48 20 -84 5 -113 -6 -11
-14 -41 -18 -67 -6 -43 -8 -46 -39 -49 -18 -2 -35 -9 -38 -17 -3 -7 -14 -11
-26 -7 -20 5 -20 2 -13 -77 l7 -81 -76 0 c-68 0 -80 -3 -101 -25 -31 -30 -32
-71 -5 -150 36 -104 27 -129 -81 -224 -45 -41 -79 -81 -91 -107 -26 -59 -61
-98 -129 -145 -32 -22 -63 -48 -69 -59 -21 -39 -10 -92 46 -220 54 -124 58
-130 112 -168 118 -82 282 -160 475 -228 110 -38 140 -41 211 -19 27 8 75 15
106 15 60 0 81 -12 95 -58 8 -26 15 -25 104 14 29 13 55 24 57 24 9 0 34 -62
28 -71 -3 -6 -44 -28 -90 -49 -97 -45 -150 -91 -252 -219 -77 -96 -80 -110
-24 -111 12 0 44 -11 70 -24 26 -13 94 -40 152 -61 119 -43 139 -57 121 -78
-14 -18 -86 -37 -135 -37 -78 0 -12 -44 92 -62 39 -6 69 -15 67 -19 -13 -20
-152 -34 -337 -31 -110 1 -199 -2 -203 -7 -7 -12 85 -46 220 -81 130 -33 228
-48 385 -59 l115 -7 -75 -24 c-70 -22 -80 -23 -158 -11 -46 6 -161 37 -256 67
-259 83 -286 83 -280 -1 6 -83 69 -178 158 -240 l54 -37 -56 -57 c-54 -53
-122 -162 -122 -193 0 -8 20 -34 45 -58 24 -24 43 -45 41 -47 -1 -2 -24 4 -50
13 -26 9 -49 14 -51 12 -2 -2 1 -22 6 -44 l11 -40 111 21 c62 12 115 20 120
18 13 -7 -13 -43 -45 -63 -17 -10 -62 -24 -100 -31 -67 -12 -69 -13 -64 -38 3
-14 11 -65 18 -114 l12 -87 36 7 c19 5 64 8 100 8 104 -1 170 -49 170 -123 0
-43 -15 -55 -81 -69 -34 -7 -66 -16 -70 -20 -4 -5 -9 -54 -11 -111 l-3 -102
34 0 c52 0 112 35 154 91 59 77 82 84 208 66 57 -9 156 -32 219 -51 374 -117
466 -133 638 -116 54 6 112 14 129 19 18 5 34 7 37 3 11 -10 6 -57 -10 -111
-41 -139 -219 -235 -401 -217 -96 10 -177 39 -344 125 -246 126 -368 159 -533
146 -137 -10 -136 -10 -135 -58 1 -72 13 -122 31 -125 10 -2 33 19 63 57 25
34 50 61 55 61 18 0 21 -69 10 -200 -6 -73 -9 -135 -6 -137 2 -3 46 9 98 27
163 54 306 73 508 67 175 -6 253 -18 363 -56 165 -57 300 -166 387 -310 9 -14
13 -13 33 10 17 19 26 48 36 110 6 46 17 112 23 146 l10 63 577 2 576 3 7 85
c23 277 168 826 313 1188 l17 42 -38 46 -38 47 16 56 c9 31 80 269 159 530
142 472 143 473 128 515 -14 40 -13 43 15 99 28 55 30 64 29 175 -1 74 -19
256 -49 492 -43 340 -48 394 -48 585 0 197 2 224 38 445 47 286 52 401 19 473
-18 38 -31 52 -63 65 l-40 17 0 151 c0 141 -2 153 -23 185 -19 28 -43 47 -79
61 -6 3 -30 131 -48 262 -16 116 -35 145 -106 160 l-31 7 -1 160 c-1 146 -10
217 -29 245 -31 42 -101 56 -141 28 -13 -9 -25 -14 -27 -13 -32 36 -699 1444
-914 1932 -155 352 -177 417 -246 733 -30 134 -35 172 -26 191 6 13 11 37 11
54 0 29 -35 115 -51 124 -4 3 6 25 23 50 34 48 42 112 17 141 -7 9 -12 29 -11
45 5 67 -59 140 -242 277 l-89 67 63 5 c54 4 65 9 91 38 23 25 29 42 29 76 0
62 -35 104 -195 236 l-136 113 48 27 c75 43 86 60 81 122 -5 45 -11 57 -46 90
l-41 38 40 12 c57 17 89 58 89 115 0 39 -5 50 -33 77 -18 17 -57 39 -85 49
l-52 19 15 28 c19 37 19 63 0 100 -14 27 -13 30 28 87 83 114 95 144 77 199
-25 75 -95 92 -220 54 -36 -11 -68 -20 -72 -20 -13 0 -9 111 7 183 20 98 34
120 81 136 41 14 44 13 305 -72 429 -140 720 -227 761 -227 75 0 118 42 118
114 0 46 -36 92 -172 219 -143 132 -167 169 -438 657 -167 301 -282 494 -345
576 -13 19 13 44 137 132 59 42 106 78 104 80 -3 2 -203 19 -445 37 l-441 34
-66 58 c-50 43 -73 73 -94 119 -33 73 -69 104 -120 104 -22 0 -43 7 -50 16
-22 26 -53 38 -110 44 l-55 5 3 65 c3 56 0 68 -18 88 -37 39 -62 43 -251 36
l-179 -7 0 56 c0 46 -3 55 -15 51 -8 -4 -15 -3 -15 1 0 4 35 57 77 119 141
203 143 206 143 243 0 26 -8 43 -34 69 -62 62 -114 47 -368 -109 -92 -56 -108
-63 -113 -47 -3 9 -14 25 -24 34 -18 16 -18 20 11 108 31 98 31 129 -3 172
-21 27 -74 42 -113 32 -13 -3 -54 -26 -90 -50 -46 -31 -66 -40 -70 -30 -9 24
-67 46 -106 41 l-38 -5 -7 146 -7 146 -33 33 c-37 37 -85 44 -123 17 -27 -19
-13 -34 -194 214 -129 179 -162 212 -211 212 -33 0 -83 -24 -89 -42 -3 -8 -32
9 -79 47 -159 129 -337 257 -410 295 -79 41 -120 48 -162 29 -21 -9 -30 -8
-54 11 -38 27 -89 39 -130 28 -36 -9 -83 -60 -83 -90 0 -26 -6 -23 -117 49
-49 33 -135 83 -190 111 l-100 52 -57 -85 -56 -85 65 -77 c180 -216 201 -439
53 -590 l-41 -42 -21 42 c-30 58 -61 77 -149 89 -69 9 -80 8 -109 -9 -18 -11
-42 -35 -53 -54 -18 -30 -24 -34 -58 -31 -25 2 -49 -4 -71 -17 -21 -14 -50
-21 -81 -21 -40 0 -52 -5 -78 -33 -18 -18 -40 -48 -51 -67 l-19 -35 -24 65
c-22 58 -34 109 -49 218 l-5 32 -103 0 -103 0 -6 -68 c-7 -69 -25 -141 -53
-208 l-16 -38 -33 54 c-39 63 -66 81 -122 78 -30 -1 -48 4 -63 17 -15 13 -38
20 -73 21 -47 2 -52 5 -68 37 -26 50 -72 68 -150 61 -86 -9 -134 -34 -159 -84
-11 -22 -25 -40 -30 -40 -13 0 -74 79 -100 130 -35 69 -39 180 -9 272 25 80
96 192 158 252 l40 39 -38 46 c-21 25 -48 65 -60 89 -12 23 -22 42 -24 42 -1
0 -55 -29 -119 -64z m-352 -868 c-3 -13 -11 -71 -17 -130 -11 -95 -10 -115 5
-172 22 -82 73 -168 191 -326 52 -69 98 -138 104 -153 6 -15 15 -27 20 -27 6
0 29 25 52 55 23 30 45 55 49 55 17 0 40 -40 59 -107 22 -72 22 -73 56 -73 18
0 46 5 61 10 16 6 31 7 36 2 5 -5 12 -42 15 -81 4 -49 11 -75 20 -78 17 -7 93
27 155 68 47 32 62 30 48 -7 -6 -14 -10 -29 -10 -34 0 -5 64 22 143 59 78 38
195 90 260 116 l119 47 61 -22 c79 -29 289 -121 390 -171 78 -40 84 -40 67 5
-14 37 1 39 48 7 62 -41 138 -75 155 -68 9 3 16 29 20 78 3 39 10 76 15 81 5
5 20 4 36 -2 15 -5 43 -10 61 -10 34 0 34 1 56 73 19 67 42 107 59 107 4 0 26
-25 49 -55 23 -30 46 -55 52 -55 5 0 14 12 20 27 6 15 52 84 104 153 118 158
169 244 191 326 15 57 16 77 5 172 -6 59 -14 118 -18 131 -5 21 -3 23 18 16
73 -22 174 -79 222 -124 46 -44 66 -75 128 -206 41 -85 76 -155 80 -155 3 0
11 25 18 55 7 30 15 55 19 55 4 0 47 -78 96 -173 49 -94 113 -215 142 -268
l54 -97 41 21 c22 11 44 16 48 11 4 -5 16 -39 25 -76 18 -66 39 -108 50 -97 3
3 10 144 15 315 9 301 20 388 42 354 14 -23 81 -235 135 -425 49 -175 64 -213
64 -157 0 18 4 32 10 32 5 0 28 -25 51 -55 45 -59 65 -70 55 -30 -4 14 -9 46
-13 71 l-6 45 139 -138 c148 -147 269 -253 291 -253 16 0 16 17 2 58 -6 17 -9
39 -7 49 3 14 21 2 83 -57 101 -96 153 -140 165 -140 6 0 10 46 11 108 0 59 4
127 7 151 l7 45 121 -190 c173 -270 207 -324 203 -328 -4 -4 -456 -96 -506
-104 -50 -7 -43 23 22 85 30 29 52 53 49 53 -14 0 -469 -216 -547 -260 -50
-27 -92 -48 -95 -45 -2 2 12 33 32 69 20 37 34 66 30 66 -15 0 -139 -106 -445
-378 -41 -36 -58 -44 -126 -57 -43 -9 -86 -17 -95 -19 -10 -2 -18 -3 -18 -1 0
2 61 40 135 85 74 45 135 85 135 90 0 5 -51 -9 -112 -32 -245 -89 -340 -120
-346 -113 -4 4 26 37 66 74 39 36 72 70 72 75 0 5 -30 6 -67 3 l-68 -7 40 17
c157 63 185 76 185 84 0 16 -78 10 -335 -26 -137 -20 -279 -38 -315 -41 l-65
-5 125 65 c123 64 124 65 91 72 -32 7 -28 9 60 34 52 14 105 33 119 41 24 13
22 14 -40 17 -82 4 -179 -18 -354 -79 -77 -27 -141 -47 -143 -45 -8 7 54 44
182 109 72 36 139 73 150 81 19 15 19 15 -7 16 -14 0 -102 -16 -194 -35 -93
-20 -177 -34 -189 -32 -15 2 1 16 63 56 45 30 81 56 78 58 -2 2 -50 -10 -106
-27 -56 -16 -104 -30 -105 -30 -2 0 6 23 16 51 32 83 22 88 -77 35 -47 -25
-90 -46 -95 -46 -5 0 1 18 13 39 51 88 -6 63 -202 -89 -161 -125 -256 -190
-277 -190 -12 0 -14 13 -11 59 l3 59 -50 -19 c-27 -10 -58 -28 -67 -40 -10
-12 -24 -19 -31 -16 -13 5 -47 99 -62 170 -12 59 -33 17 -70 -141 -10 -41 -24
-76 -32 -79 -18 -7 -50 22 -74 67 -10 20 -18 28 -19 18 0 -14 -7 -16 -37 -11
-21 3 -55 12 -77 19 -45 16 -52 13 -61 -26 -4 -17 -10 -30 -15 -30 -8 0 -26
89 -37 183 -3 26 -10 50 -14 53 -14 8 -60 -30 -109 -90 -25 -30 -49 -55 -55
-55 -6 -1 -9 -26 -7 -61 3 -47 1 -60 -11 -60 -21 0 -116 65 -277 190 -196 152
-253 177 -202 89 12 -21 18 -39 13 -39 -5 0 -48 21 -95 46 -99 53 -109 48 -77
-35 10 -28 18 -51 16 -51 -1 0 -49 14 -105 30 -56 17 -104 29 -106 27 -3 -2
33 -28 78 -58 62 -40 78 -54 63 -56 -12 -2 -96 12 -189 32 -92 19 -180 35
-194 35 -26 -1 -26 -1 -7 -16 11 -8 79 -45 150 -81 128 -65 190 -102 182 -109
-2 -2 -66 18 -143 45 -175 61 -272 83 -354 79 -62 -3 -64 -4 -40 -17 14 -8 67
-27 119 -41 88 -25 92 -27 60 -34 -33 -7 -32 -8 91 -72 l125 -65 -65 5 c-36 3
-177 21 -315 41 -257 36 -335 42 -335 26 0 -8 28 -21 185 -84 l40 -17 -67 7
c-38 3 -68 2 -68 -3 0 -5 33 -39 73 -75 39 -37 69 -70 65 -74 -6 -7 -101 24
-345 113 -62 23 -113 37 -113 32 0 -5 61 -45 135 -90 74 -45 135 -83 135 -84
0 -2 -35 3 -77 11 -59 11 -85 21 -113 46 -20 18 -99 88 -176 157 -172 153
-283 244 -290 238 -2 -3 12 -33 32 -67 20 -34 34 -64 31 -67 -3 -3 -42 16 -88
42 -45 25 -135 71 -198 101 -151 72 -351 163 -357 163 -3 0 20 -24 51 -54 56
-55 70 -86 38 -86 -50 2 -548 109 -546 118 3 11 75 128 228 367 l90 139 7 -44
c3 -25 7 -93 7 -152 1 -62 5 -108 11 -108 12 0 64 44 165 140 62 59 80 71 83
57 2 -10 -1 -32 -7 -49 -14 -41 -14 -58 2 -58 22 0 144 106 291 253 l139 139
-6 -46 c-4 -25 -9 -57 -13 -71 -10 -40 10 -29 55 30 23 30 46 55 51 55 6 0 10
-14 10 -32 0 -56 15 -18 64 157 54 190 121 402 135 425 22 34 33 -53 42 -354
5 -171 12 -312 15 -315 11 -11 32 31 50 97 9 37 21 71 25 76 4 5 26 0 48 -11
l41 -21 54 97 c29 53 93 174 142 268 49 95 92 173 96 173 4 0 12 -25 19 -55 7
-30 15 -55 18 -55 4 0 38 66 76 148 94 197 136 244 284 308 90 40 95 41 87 12z
m-352 -6007 c16 -18 20 -37 20 -104 1 -66 6 -92 25 -132 14 -27 27 -54 29 -59
6 -12 -40 -1 -105 25 -46 19 -54 26 -70 67 -25 65 -23 154 5 215 l22 49 27
-20 c16 -11 37 -29 47 -41z m3570 5 c24 -50 25 -155 1 -213 -15 -37 -24 -45
-71 -62 -64 -24 -104 -35 -104 -28 0 3 12 29 28 58 22 44 27 67 28 132 2 77 3
80 40 118 21 22 43 38 49 36 5 -2 19 -20 29 -41z m4812 -6341 c-26 -19 -70
-42 -97 -50 -62 -21 -158 -34 -165 -23 -13 21 45 56 117 71 77 16 167 34 184
36 5 0 -12 -15 -39 -34z m-1568 -755 c41 -5 91 -14 113 -20 37 -10 39 -13 39
-48 0 -59 -25 -149 -53 -191 -32 -48 -110 -88 -189 -97 l-58 -7 0 44 c0 24 7
69 15 99 20 73 19 77 -10 96 -21 13 -50 16 -155 15 -79 -1 -130 2 -130 8 0 14
76 58 132 77 42 14 141 30 198 32 14 1 58 -3 98 -8z m297 -826 c159 -19 155
-18 155 -64 0 -33 -4 -40 -22 -45 -158 -34 -443 -52 -583 -37 -102 11 -184 37
-200 62 -12 20 36 60 94 77 119 34 314 37 556 7z"/>
<path d="M5933 7471 c-138 -50 -261 -152 -310 -257 -24 -52 -28 -74 -31 -180
-4 -135 11 -219 53 -289 13 -22 71 -93 129 -159 58 -65 116 -135 127 -156 12
-22 42 -53 66 -70 98 -71 328 -160 413 -160 87 0 343 101 418 165 18 15 50 53
72 84 21 31 74 95 118 142 157 171 177 218 177 424 0 134 -1 142 -29 200 -43
87 -132 171 -238 224 -115 56 -157 60 -326 27 -163 -32 -223 -32 -382 -1 -148
30 -188 30 -257 6z"/>
<path d="M5195 6115 c69 -49 87 -65 134 -124 33 -42 89 -140 152 -266 108
-218 164 -294 290 -391 335 -258 819 -271 1171 -33 147 100 238 211 316 386
89 200 194 356 272 404 41 25 50 39 25 39 -30 0 -293 -92 -365 -128 -41 -20
-82 -48 -92 -62 -12 -17 -21 -58 -27 -128 -6 -68 -16 -114 -28 -135 -50 -85
-293 -174 -545 -199 -215 -22 -475 21 -655 108 -129 62 -142 82 -161 257 -11
105 -20 118 -117 163 -87 40 -336 124 -367 124 -23 -1 -23 -1 -3 -15z"/>
<path d="M6165 5910 c-77 -22 -162 -45 -189 -50 -27 -6 -50 -11 -51 -13 -1 -1
-14 -26 -28 -54 l-27 -53 55 0 c66 0 105 -18 140 -65 23 -29 31 -33 55 -28 35
6 130 -15 136 -31 3 -7 44 -11 124 -11 80 0 121 4 124 11 6 16 101 37 135 31
23 -5 32 0 50 24 36 48 79 69 143 69 l57 0 -27 54 c-23 47 -32 56 -62 61 -19
4 -98 25 -175 47 -207 59 -278 60 -460 8z"/>
<path d="M5500 5236 c0 -2 8 -10 18 -17 15 -13 16 -12 3 4 -13 16 -21 21 -21
13z"/>
<path d="M10156 3881 c-6 -9 18 -32 52 -50 21 -11 22 -10 22 24 0 33 -2 35
-34 35 -19 0 -37 -4 -40 -9z"/>
</g>
</svg>
